<?xml version="1.0" standalone="no"?>
<svg version="1.0" xmlns="http://www.w3.org/2000/svg"
 width="1038.000000pt" height="416.000000pt" viewBox="0 0 1038.000000 416.000000"
 preserveAspectRatio="xMidYMid meet">
<g transform="translate(0.000000,416.000000) scale(0.100000,-0.100000)"
fill="currentColor" stroke="none">
<path d="M4754 3006 c-29 -29 -34 -41 -34 -79 0 -54 26 -91 75 -107 75 -25
145 30 145 114 0 30 -7 45 -34 72 -28 28 -42 34 -76 34 -34 0 -48 -6 -76 -34z"/>
<path d="M9283 2736 c-202 -49 -378 -230 -507 -523 -88 -200 -148 -403 -276
-941 -114 -480 -177 -668 -244 -731 -33 -31 -101 -39 -144 -17 -66 34 -133
173 -186 383 -29 114 -70 342 -121 673 -112 728 -218 1008 -427 1121 -59 32
-69 34 -158 34 -85 0 -101 -3 -149 -29 -132 -69 -230 -227 -315 -507 -42 -140
-88 -353 -156 -719 -111 -603 -182 -841 -280 -939 -54 -53 -129 -39 -188 37
-83 104 -149 282 -288 770 -111 394 -165 557 -237 725 -134 312 -287 502 -482
598 -108 52 -179 69 -300 69 -176 0 -290 -46 -411 -165 -89 -88 -140 -164
-215 -318 -100 -207 -171 -442 -309 -1027 -101 -426 -166 -620 -229 -687 -25
-26 -93 -47 -124 -37 -40 12 -94 75 -130 152 -70 150 -116 353 -192 847 -105
682 -184 945 -333 1106 -78 85 -161 124 -262 124 -66 0 -85 -5 -142 -33 -211
-104 -325 -386 -463 -1142 -115 -631 -180 -869 -271 -993 -62 -85 -123 -87
-197 -8 -95 101 -153 253 -313 814 -118 417 -180 598 -264 774 -82 172 -157
283 -261 385 -71 70 -106 95 -181 133 -91 45 -202 74 -289 75 -81 0 -139 -79
-109 -150 19 -45 47 -59 137 -70 220 -25 359 -151 508 -464 83 -172 143 -350
270 -797 145 -511 205 -668 309 -805 50 -66 86 -98 156 -135 38 -20 59 -24
135 -24 78 0 97 4 141 27 101 53 184 174 253 370 47 134 94 339 166 723 135
720 200 937 318 1060 39 40 48 45 88 45 86 0 152 -69 214 -223 63 -157 106
-352 175 -797 53 -348 85 -519 121 -663 71 -283 164 -442 300 -514 48 -24 65
-28 144 -28 82 0 97 3 157 33 151 74 231 247 353 757 185 776 248 974 374
1189 96 164 204 244 341 253 144 10 252 -31 366 -139 185 -176 296 -428 485
-1107 147 -525 230 -733 344 -858 97 -107 216 -149 334 -119 78 20 140 62 190
129 118 158 186 387 301 1007 99 534 150 739 225 897 119 253 254 256 370 9
75 -158 122 -361 195 -836 92 -599 140 -797 236 -981 52 -98 112 -162 189
-200 54 -26 74 -31 137 -31 107 1 178 30 249 102 100 100 165 270 264 685 160
670 221 882 309 1070 116 248 251 375 399 375 74 0 114 -17 178 -77 101 -94
192 -290 259 -557 43 -171 90 -435 90 -504 0 -84 -57 -164 -148 -211 -58 -29
-142 -49 -337 -76 -208 -30 -316 -62 -382 -112 -100 -76 -135 -146 -141 -279
-9 -199 74 -333 246 -397 77 -29 303 -31 402 -4 153 41 287 130 371 246 24 33
47 60 52 60 4 1 7 -55 7 -124 0 -142 10 -174 61 -201 57 -29 140 9 151 70 7
37 -10 463 -27 676 -87 1069 -318 1630 -699 1699 -74 14 -116 13 -183 -3z
m629 -1794 c-54 -139 -104 -223 -177 -301 -106 -111 -210 -154 -380 -155 -188
-2 -265 60 -265 212 0 90 48 146 149 176 30 9 134 27 230 41 247 36 370 74
456 139 33 25 30 -3 -13 -112z"/>
<path d="M4764 2226 l-34 -34 0 -901 c0 -988 -2 -954 59 -985 59 -31 123 -9
148 52 14 33 15 138 8 937 l-8 900 -32 32 c-46 46 -94 46 -141 -1z"/>
</g>
</svg>
